<svg width="31" height="25" viewBox="0 0 31 25" fill="none" xmlns="http://www.w3.org/2000/svg">
<g clip-path="url(#clip0_1690_282)">
<path fillRule="evenodd" clipRule="evenodd" d="M7.10702 0.00537109C4.84426 0.636626 3.92703 1.72122 3.36035 3.99717C3.36035 3.99717 4.59782 3.27103 5.15791 2.35907C6.18848 0.68275 7.10702 0.00537109 7.10702 0.00537109Z" fill="#1A3A58" stroke="#1A3A58" strokeWidth="0.0105429" stroke-miterlimit="3.2"/>
<path fillRule="evenodd" clipRule="evenodd" d="M4.13138 1.44568C1.31511 2.63043 2.33514 5.17258 2.13614 6.86735C2.97825 5.66283 5.65614 4.33706 5.61924 2.4143C4.55309 3.98388 3.48167 3.9931 2.74763 5.22003C3.42501 3.59511 2.65406 3.23006 4.13138 1.44568Z" fill="#1A3A58" stroke="#1A3A58" strokeWidth="0.0105429" stroke-miterlimit="3.2"/>
<path fillRule="evenodd" clipRule="evenodd" d="M1.98937 3.35803C-0.670067 6.22965 1.49122 8.6835 1.68626 10.369C2.15542 8.30923 4.31408 7.32611 4.28376 5.18063C4.28376 5.18063 3.55894 6.1453 2.73528 6.90176C2.09744 7.48688 2.01046 8.10496 1.88922 8.24729C1.87077 7.10998 1.31068 4.02487 1.98937 3.35803Z" fill="#1A3A58" stroke="#1A3A58" strokeWidth="0.0105429" stroke-miterlimit="3.2"/>
<path fillRule="evenodd" clipRule="evenodd" d="M0.358505 7.30103C0.358505 7.30103 0.373002 8.58462 1.06356 10.1371C1.59597 11.3324 1.849 12.3998 1.849 12.3998C1.849 12.3998 1.87404 10.8461 2.27467 10.2702C3.0812 9.10913 3.43307 8.11414 3.43307 8.11414C3.54904 10.6392 2.23909 12.2456 2.46181 14.3305C2.02691 13.3592 -1.01734 11.4681 0.358505 7.30103Z" fill="#1A3A58" stroke="#1A3A58" strokeWidth="0.0105429" stroke-miterlimit="3.2"/>
<path fillRule="evenodd" clipRule="evenodd" d="M3.39408 11.4813C3.14106 13.1972 2.54143 14.5625 3.47447 16.4338C3.40726 16.3943 2.32662 14.6771 1.79684 14.3305C0.44208 13.4436 0.0796688 11.5604 0.0796688 11.5604C-0.488329 15.8961 4.38907 17.3563 4.64605 17.7767C3.51006 15.1713 4.34426 13.6993 3.39408 11.48V11.4813Z" fill="#1A3A58" stroke="#1A3A58" strokeWidth="0.0105429" stroke-miterlimit="3.2"/>
<path fillRule="evenodd" clipRule="evenodd" d="M0.997803 15.6404C1.50254 16.949 4.79587 18.3736 6.20335 19.2552C6.20335 19.2552 5.14115 18.4527 5.01727 17.5605C4.72734 15.469 4.274 14.3409 4.274 14.3409C6.09396 15.7181 6.08342 19.0958 7.59632 20.2146C5.27294 19.6229 1.9203 19.6137 0.997803 15.6404Z" fill="#1A3A58" stroke="#1A3A58" strokeWidth="0.0105429" stroke-miterlimit="3.2"/>
<path fillRule="evenodd" clipRule="evenodd" d="M6.33421 17.372C7.85897 18.454 9.04505 20.3754 11.3605 20.8736C10.0677 21.0027 5.86637 23.3433 3.33081 19.3673C4.58541 20.7023 6.69662 20.361 9.17683 20.7695C7.91828 20.5283 7.05508 18.7703 6.33421 17.3707V17.372Z" fill="#1A3A58" stroke="#1A3A58" strokeWidth="0.0105429" stroke-miterlimit="3.2"/>
<path fillRule="evenodd" clipRule="evenodd" d="M6.25513 21.7843C10.0519 23.9152 11.2366 19.872 15.6132 21.066C19.7355 19.9287 21.4448 24.1195 24.6129 21.7988C20.7028 25.8986 18.4941 20.7537 16.2524 21.3467C17.4411 22.0307 18.4045 22.7529 19.381 23.6767L18.7959 24.2763C17.9933 23.309 16.7242 22.0491 15.5078 21.5602C13.7999 22.1902 13.2095 23.0468 12.0998 24.2895L11.4738 23.7703C12.428 22.7634 13.0487 22.2086 14.6552 21.3072C11.9206 21.3125 10.1085 25.6443 6.25513 21.7869V21.7843Z" fill="#1A3A58" stroke="#1A3A58" strokeWidth="0.0105429" stroke-miterlimit="3.2"/>
<path fillRule="evenodd" clipRule="evenodd" d="M23.899 0.0422363C25.7282 0.676126 26.7706 1.18087 27.419 3.80736C27.419 3.80736 26.2171 3.13262 25.7809 2.37616C25.0179 1.05303 23.8977 0.0422363 23.8977 0.0422363H23.899Z" fill="#1A3A58" stroke="#1A3A58" strokeWidth="0.0105429" stroke-miterlimit="3.2"/>
<path fillRule="evenodd" clipRule="evenodd" d="M26.7991 1.47339C29.4256 2.85846 28.7732 4.99734 28.7007 6.87661C28.1077 5.41642 25.6288 4.79835 25.2361 2.43411C26.2522 3.72693 27.4949 4.17236 28.1736 5.23983C27.7716 4.17368 27.7769 2.19426 26.7991 1.47471V1.47339Z" fill="#1A3A58" stroke="#1A3A58" strokeWidth="0.0105429" stroke-miterlimit="3.2"/>
<path fillRule="evenodd" clipRule="evenodd" d="M28.9644 3.43174C30.9267 5.98311 30.0806 7.08089 29.2464 10.4731C29.2464 10.4731 28.656 8.82705 27.5517 7.59222C26.898 6.86081 26.5725 5.18185 26.5725 5.18185C26.5725 5.18185 27.3435 6.31653 28.2475 7.00841C28.9447 7.54082 29.1318 8.60829 29.1318 8.60829C29.1318 8.60829 28.9657 7.37873 29.1885 6.17947C29.4125 4.97363 28.9631 3.43042 28.9631 3.43042L28.9644 3.43174Z" fill="#1A3A58" stroke="#1A3A58" strokeWidth="0.0105429" stroke-miterlimit="3.2"/>
<path fillRule="evenodd" clipRule="evenodd" d="M30.5322 7.31028C31.4586 9.67847 30.5572 12.2654 28.3946 14.3358C28.3946 14.3358 28.6345 12.7175 27.9162 11.1597C27.3957 10.0303 27.4576 7.94944 27.4576 7.94944C27.7449 9.48475 29.1392 9.99212 29.0008 12.7689C29.0008 12.7689 29.2156 10.9502 29.7401 10.2372C30.5519 9.1342 30.5309 7.30896 30.5309 7.30896L30.5322 7.31028Z" fill="#1A3A58" stroke="#1A3A58" strokeWidth="0.0105429" stroke-miterlimit="3.2"/>
<path fillRule="evenodd" clipRule="evenodd" d="M30.8292 11.5643C31.7939 14.3081 28.2989 16.5471 26.2642 17.8241C26.2642 17.8241 27.0944 15.7459 27.0364 14.2659C26.9784 12.7873 27.5069 11.4141 27.5069 11.4141C27.81 12.4341 28.2357 14.9472 27.5451 16.2901C28.1988 15.021 30.7528 12.8993 30.8582 11.5366L30.8305 11.5643H30.8292Z" fill="#1A3A58" stroke="#1A3A58" strokeWidth="0.0105429" stroke-miterlimit="3.2"/>
<path fillRule="evenodd" clipRule="evenodd" d="M26.6391 14.3134C26.6391 14.3134 25.1315 16.161 24.9259 17.1744C24.5385 19.0853 23.3445 20.1778 23.3445 20.1778C26.394 19.909 29.3737 18.5041 29.9153 15.6879C28.8914 17.4749 26.4204 18.0376 24.8416 19.1894C24.8416 19.1894 25.9156 18.0851 25.971 17.4103C26.112 15.705 26.6391 14.3134 26.6391 14.3134Z" fill="#1A3A58" stroke="#1A3A58" strokeWidth="0.0105429" stroke-miterlimit="3.2"/>
<path fillRule="evenodd" clipRule="evenodd" d="M24.5227 17.438C23.1099 18.3328 21.2069 20.8552 19.4397 20.8921C22.111 21.6538 26.0883 22.5987 27.7145 19.3014C26.6682 20.6022 24.1247 20.4677 22.057 20.6193C23.6542 19.9498 23.7768 18.4106 24.5227 17.438Z" fill="#1A3A58" stroke="#1A3A58" strokeWidth="0.0105429" stroke-miterlimit="3.2"/>
<path fillRule="evenodd" clipRule="evenodd" d="M23.7478 5.70383L21.7512 6.76866C18.6147 -0.169865 7.71469 2.47244 8.5713 10.4956C9.38706 17.2549 18.9205 18.7651 21.7235 12.5185L23.8005 13.5042C18.6542 23.2854 4.3871 18.4106 6.41397 7.53961C7.03863 3.92077 10.245 1.33118 13.7096 0.564183C17.7686 -0.501965 22.0372 2.04414 23.7478 5.70252V5.70383Z" fill="#1A3A58" stroke="#1A3A58" strokeWidth="0.0105429" stroke-miterlimit="3.2"/>
<path fillRule="evenodd" clipRule="evenodd" d="M17.9173 7.82021C16.2054 5.65365 12.7157 6.58933 12.4192 9.37792C12.2439 12.3431 16.2476 13.8336 17.9305 11.3218L19.5145 12.467C15.8996 17.6093 8.08605 12.8347 10.901 7.20872C12.58 4.00369 17.688 3.59647 19.5672 6.74352L17.916 7.82153L17.9173 7.82021Z" fill="#1A3A58" stroke="#1A3A58" strokeWidth="0.0105429" stroke-miterlimit="3.2"/>
</g>
<defs>
<clipPath id="clip0_1690_282">
<rect width="31" height="24.2947" fill="white"/>
</clipPath>
</defs>
</svg>
